<svg width="1920" height="481" viewBox="0 0 1920 481" fill="none" xmlns="http://www.w3.org/2000/svg">
<path d="M-233.375 447.775L-62.9489 158.507L107.478 447.775L-233.375 447.775Z" stroke="#C21C1C" stroke-opacity="0.33" stroke-width="3"/>
<path d="M-233.375 452.192L-62.9489 162.924L107.478 452.192L-233.375 452.192Z" stroke="#C21C1C" stroke-opacity="0.33" stroke-width="3"/>
<path d="M-233.375 456.608L-62.9489 167.341L107.478 456.608L-233.375 456.608Z" stroke="#C21C1C" stroke-opacity="0.33" stroke-width="3"/>
<path d="M-233.375 461.025L-62.9489 171.758L107.478 461.025L-233.375 461.025Z" stroke="#C21C1C" stroke-opacity="0.33" stroke-width="3"/>
<path d="M-233.375 465.442L-62.9489 176.175L107.478 465.442L-233.375 465.442Z" stroke="#C21C1C" stroke-opacity="0.33" stroke-width="3"/>
<path d="M-233.375 469.859L-62.9489 180.592L107.478 469.859L-233.375 469.859Z" stroke="#C21C1C" stroke-opacity="0.33" stroke-width="3"/>
<path d="M-233.375 474.276L-62.9489 185.008L107.478 474.276L-233.375 474.276Z" stroke="#C21C1C" stroke-opacity="0.33" stroke-width="3"/>
<path d="M-233.375 478.693L-62.9489 189.425L107.478 478.693L-233.375 478.693Z" stroke="#C21C1C" stroke-opacity="0.33" stroke-width="3"/>
<path d="M335.25 32.4184L164.824 321.686L-5.6026 32.4184L335.25 32.4184Z" stroke="#C21C1C" stroke-opacity="0.33" stroke-width="3"/>
<path d="M335.25 28.0014L164.824 317.269L-5.60253 28.0014L335.25 28.0014Z" stroke="#C21C1C" stroke-opacity="0.33" stroke-width="3"/>
<path d="M335.25 23.5847L164.824 312.852L-5.6026 23.5847L335.25 23.5847Z" stroke="#C21C1C" stroke-opacity="0.33" stroke-width="3"/>
<path d="M335.25 19.1677L164.824 308.435L-5.6026 19.1677L335.25 19.1677Z" stroke="#C21C1C" stroke-opacity="0.33" stroke-width="3"/>
<path d="M335.25 14.7507L164.824 304.018L-5.6026 14.7507L335.25 14.7507Z" stroke="#C21C1C" stroke-opacity="0.33" stroke-width="3"/>
<path d="M335.25 10.3339L164.824 299.602L-5.60253 10.334L335.25 10.3339Z" stroke="#C21C1C" stroke-opacity="0.33" stroke-width="3"/>
<path d="M335.25 5.91693L164.824 295.185L-5.6026 5.91696L335.25 5.91693Z" stroke="#C21C1C" stroke-opacity="0.33" stroke-width="3"/>
<path d="M335.25 1.49994L164.824 290.768L-5.6026 1.49997L335.25 1.49994Z" stroke="#C21C1C" stroke-opacity="0.33" stroke-width="3"/>
<path d="M207.356 447.775L377.782 158.507L548.209 447.775L207.356 447.775Z" stroke="#C21C1C" stroke-opacity="0.33" stroke-width="3"/>
<path d="M207.356 452.192L377.782 162.924L548.208 452.192L207.356 452.192Z" stroke="#C21C1C" stroke-opacity="0.33" stroke-width="3"/>
<path d="M207.356 456.608L377.782 167.341L548.209 456.608L207.356 456.608Z" stroke="#C21C1C" stroke-opacity="0.33" stroke-width="3"/>
<path d="M207.356 461.025L377.782 171.758L548.209 461.025L207.356 461.025Z" stroke="#C21C1C" stroke-opacity="0.33" stroke-width="3"/>
<path d="M207.356 465.442L377.782 176.175L548.209 465.442L207.356 465.442Z" stroke="#C21C1C" stroke-opacity="0.33" stroke-width="3"/>
<path d="M207.356 469.859L377.782 180.592L548.208 469.859L207.356 469.859Z" stroke="#C21C1C" stroke-opacity="0.33" stroke-width="3"/>
<path d="M207.356 474.276L377.782 185.008L548.209 474.276L207.356 474.276Z" stroke="#C21C1C" stroke-opacity="0.33" stroke-width="3"/>
<path d="M207.356 478.693L377.782 189.425L548.209 478.693L207.356 478.693Z" stroke="#C21C1C" stroke-opacity="0.33" stroke-width="3"/>
<path d="M775.981 32.4184L605.555 321.686L435.128 32.4184L775.981 32.4184Z" stroke="#C21C1C" stroke-opacity="0.33" stroke-width="3"/>
<path d="M775.981 28.0014L605.555 317.269L435.128 28.0014L775.981 28.0014Z" stroke="#C21C1C" stroke-opacity="0.33" stroke-width="3"/>
<path d="M775.981 23.5847L605.555 312.852L435.128 23.5847L775.981 23.5847Z" stroke="#C21C1C" stroke-opacity="0.33" stroke-width="3"/>
<path d="M775.981 19.1677L605.555 308.435L435.128 19.1677L775.981 19.1677Z" stroke="#C21C1C" stroke-opacity="0.33" stroke-width="3"/>
<path d="M775.981 14.7507L605.555 304.018L435.128 14.7507L775.981 14.7507Z" stroke="#C21C1C" stroke-opacity="0.33" stroke-width="3"/>
<path d="M775.981 10.3339L605.555 299.602L435.128 10.334L775.981 10.3339Z" stroke="#C21C1C" stroke-opacity="0.33" stroke-width="3"/>
<path d="M775.981 5.91693L605.555 295.185L435.128 5.91696L775.981 5.91693Z" stroke="#C21C1C" stroke-opacity="0.33" stroke-width="3"/>
<path d="M775.981 1.49994L605.555 290.768L435.128 1.49997L775.981 1.49994Z" stroke="#C21C1C" stroke-opacity="0.33" stroke-width="3"/>
<path d="M648.087 447.775L818.513 158.507L988.939 447.775L648.087 447.775Z" stroke="#C21C1C" stroke-opacity="0.33" stroke-width="3"/>
<path d="M648.087 452.192L818.513 162.924L988.939 452.192L648.087 452.192Z" stroke="#C21C1C" stroke-opacity="0.33" stroke-width="3"/>
<path d="M648.087 456.608L818.513 167.341L988.939 456.608L648.087 456.608Z" stroke="#C21C1C" stroke-opacity="0.33" stroke-width="3"/>
<path d="M648.087 461.025L818.513 171.758L988.939 461.025L648.087 461.025Z" stroke="#C21C1C" stroke-opacity="0.33" stroke-width="3"/>
<path d="M648.087 465.442L818.513 176.175L988.939 465.442L648.087 465.442Z" stroke="#C21C1C" stroke-opacity="0.33" stroke-width="3"/>
<path d="M648.087 469.859L818.513 180.592L988.939 469.859L648.087 469.859Z" stroke="#C21C1C" stroke-opacity="0.33" stroke-width="3"/>
<path d="M648.087 474.276L818.513 185.008L988.939 474.276L648.087 474.276Z" stroke="#C21C1C" stroke-opacity="0.33" stroke-width="3"/>
<path d="M648.087 478.693L818.513 189.425L988.939 478.693L648.087 478.693Z" stroke="#C21C1C" stroke-opacity="0.33" stroke-width="3"/>
<path d="M1216.71 32.4184L1046.29 321.686L875.859 32.4184L1216.71 32.4184Z" stroke="#C21C1C" stroke-opacity="0.33" stroke-width="3"/>
<path d="M1216.71 28.0014L1046.29 317.269L875.859 28.0014L1216.71 28.0014Z" stroke="#C21C1C" stroke-opacity="0.33" stroke-width="3"/>
<path d="M1216.71 23.5847L1046.29 312.852L875.859 23.5847L1216.71 23.5847Z" stroke="#C21C1C" stroke-opacity="0.33" stroke-width="3"/>
<path d="M1216.71 19.1677L1046.29 308.435L875.859 19.1677L1216.71 19.1677Z" stroke="#C21C1C" stroke-opacity="0.33" stroke-width="3"/>
<path d="M1216.71 14.7507L1046.29 304.018L875.859 14.7507L1216.71 14.7507Z" stroke="#C21C1C" stroke-opacity="0.33" stroke-width="3"/>
<path d="M1216.71 10.3339L1046.29 299.602L875.859 10.334L1216.71 10.3339Z" stroke="#C21C1C" stroke-opacity="0.33" stroke-width="3"/>
<path d="M1216.71 5.91693L1046.29 295.185L875.859 5.91696L1216.71 5.91693Z" stroke="#C21C1C" stroke-opacity="0.33" stroke-width="3"/>
<path d="M1216.71 1.49994L1046.29 290.768L875.859 1.49997L1216.71 1.49994Z" stroke="#C21C1C" stroke-opacity="0.33" stroke-width="3"/>
<path d="M1088.82 447.775L1259.24 158.507L1429.67 447.775L1088.82 447.775Z" stroke="#C21C1C" stroke-opacity="0.33" stroke-width="3"/>
<path d="M1088.82 452.192L1259.24 162.924L1429.67 452.192L1088.82 452.192Z" stroke="#C21C1C" stroke-opacity="0.33" stroke-width="3"/>
<path d="M1088.82 456.608L1259.24 167.341L1429.67 456.608L1088.82 456.608Z" stroke="#C21C1C" stroke-opacity="0.33" stroke-width="3"/>
<path d="M1088.82 461.025L1259.24 171.758L1429.67 461.025L1088.82 461.025Z" stroke="#C21C1C" stroke-opacity="0.33" stroke-width="3"/>
<path d="M1088.82 465.442L1259.24 176.175L1429.67 465.442L1088.82 465.442Z" stroke="#C21C1C" stroke-opacity="0.33" stroke-width="3"/>
<path d="M1088.82 469.859L1259.24 180.592L1429.67 469.859L1088.82 469.859Z" stroke="#C21C1C" stroke-opacity="0.33" stroke-width="3"/>
<path d="M1088.82 474.276L1259.24 185.008L1429.67 474.276L1088.82 474.276Z" stroke="#C21C1C" stroke-opacity="0.33" stroke-width="3"/>
<path d="M1088.82 478.693L1259.24 189.425L1429.67 478.693L1088.82 478.693Z" stroke="#C21C1C" stroke-opacity="0.33" stroke-width="3"/>
<path d="M1657.44 32.4184L1487.02 321.686L1316.59 32.4184L1657.44 32.4184Z" stroke="#C21C1C" stroke-opacity="0.33" stroke-width="3"/>
<path d="M1657.44 28.0014L1487.02 317.269L1316.59 28.0014L1657.44 28.0014Z" stroke="#C21C1C" stroke-opacity="0.33" stroke-width="3"/>
<path d="M1657.44 23.5847L1487.02 312.852L1316.59 23.5847L1657.44 23.5847Z" stroke="#C21C1C" stroke-opacity="0.33" stroke-width="3"/>
<path d="M1657.44 19.1677L1487.02 308.435L1316.59 19.1677L1657.44 19.1677Z" stroke="#C21C1C" stroke-opacity="0.33" stroke-width="3"/>
<path d="M1657.44 14.7507L1487.02 304.018L1316.59 14.7507L1657.44 14.7507Z" stroke="#C21C1C" stroke-opacity="0.33" stroke-width="3"/>
<path d="M1657.44 10.3339L1487.02 299.602L1316.59 10.334L1657.44 10.3339Z" stroke="#C21C1C" stroke-opacity="0.33" stroke-width="3"/>
<path d="M1657.44 5.91693L1487.02 295.185L1316.59 5.91696L1657.44 5.91693Z" stroke="#C21C1C" stroke-opacity="0.33" stroke-width="3"/>
<path d="M1657.44 1.49994L1487.02 290.768L1316.59 1.49997L1657.44 1.49994Z" stroke="#C21C1C" stroke-opacity="0.33" stroke-width="3"/>
<path d="M1529.55 447.775L1699.97 158.507L1870.4 447.775L1529.55 447.775Z" stroke="#C21C1C" stroke-opacity="0.33" stroke-width="3"/>
<path d="M1529.55 452.192L1699.97 162.924L1870.4 452.192L1529.55 452.192Z" stroke="#C21C1C" stroke-opacity="0.33" stroke-width="3"/>
<path d="M1529.55 456.608L1699.97 167.341L1870.4 456.608L1529.55 456.608Z" stroke="#C21C1C" stroke-opacity="0.33" stroke-width="3"/>
<path d="M1529.55 461.025L1699.97 171.758L1870.4 461.025L1529.55 461.025Z" stroke="#C21C1C" stroke-opacity="0.33" stroke-width="3"/>
<path d="M1529.55 465.442L1699.97 176.175L1870.4 465.442L1529.55 465.442Z" stroke="#C21C1C" stroke-opacity="0.33" stroke-width="3"/>
<path d="M1529.55 469.859L1699.97 180.592L1870.4 469.859L1529.55 469.859Z" stroke="#C21C1C" stroke-opacity="0.33" stroke-width="3"/>
<path d="M1529.55 474.276L1699.97 185.008L1870.4 474.276L1529.55 474.276Z" stroke="#C21C1C" stroke-opacity="0.33" stroke-width="3"/>
<path d="M1529.55 478.693L1699.97 189.425L1870.4 478.693L1529.55 478.693Z" stroke="#C21C1C" stroke-opacity="0.33" stroke-width="3"/>
<path d="M2098.17 32.4184L1927.75 321.686L1757.32 32.4184L2098.17 32.4184Z" stroke="#C21C1C" stroke-opacity="0.33" stroke-width="3"/>
<path d="M2098.17 28.0014L1927.75 317.269L1757.32 28.0014L2098.17 28.0014Z" stroke="#C21C1C" stroke-opacity="0.33" stroke-width="3"/>
<path d="M2098.17 23.5847L1927.75 312.852L1757.32 23.5847L2098.17 23.5847Z" stroke="#C21C1C" stroke-opacity="0.33" stroke-width="3"/>
<path d="M2098.17 19.1677L1927.75 308.435L1757.32 19.1677L2098.17 19.1677Z" stroke="#C21C1C" stroke-opacity="0.33" stroke-width="3"/>
<path d="M2098.17 14.7507L1927.75 304.018L1757.32 14.7507L2098.17 14.7507Z" stroke="#C21C1C" stroke-opacity="0.33" stroke-width="3"/>
<path d="M2098.17 10.3339L1927.75 299.602L1757.32 10.334L2098.17 10.3339Z" stroke="#C21C1C" stroke-opacity="0.33" stroke-width="3"/>
<path d="M2098.17 5.91693L1927.75 295.185L1757.32 5.91696L2098.17 5.91693Z" stroke="#C21C1C" stroke-opacity="0.33" stroke-width="3"/>
<path d="M2098.17 1.49994L1927.75 290.768L1757.32 1.49997L2098.17 1.49994Z" stroke="#C21C1C" stroke-opacity="0.33" stroke-width="3"/>
</svg>
