<svg width="1718" height="1613" viewBox="0 0 1718 1613" fill="none" xmlns="http://www.w3.org/2000/svg">
<path d="M1715.37 155.684L859 1609.23L2.62451 155.685L1715.37 155.684Z" stroke="#C21C1C" stroke-opacity="0.33" stroke-width="3"/>
<path d="M1715.38 133.759L859 1587.3L2.62475 133.759L1715.38 133.759Z" stroke="#C21C1C" stroke-opacity="0.33" stroke-width="3"/>
<path d="M1715.38 111.836L859 1565.38L2.62512 111.836L1715.38 111.836Z" stroke="#C21C1C" stroke-opacity="0.33" stroke-width="3"/>
<path d="M1715.38 89.9098L859 1543.45L2.62499 89.9099L1715.38 89.9098Z" stroke="#C21C1C" stroke-opacity="0.33" stroke-width="3"/>
<path d="M1715.38 67.9843L859 1521.53L2.62493 67.9844L1715.38 67.9843Z" stroke="#C21C1C" stroke-opacity="0.33" stroke-width="3"/>
<path d="M1715.38 46.0602L859 1499.6L2.62499 46.0603L1715.38 46.0602Z" stroke="#C21C1C" stroke-opacity="0.33" stroke-width="3"/>
<path d="M1715.38 24.1354L859 1477.68L2.62512 24.1355L1715.38 24.1354Z" stroke="#C21C1C" stroke-opacity="0.33" stroke-width="3"/>
<path d="M1715.38 2.21008L859 1455.75L2.62493 2.21023L1715.38 2.21008Z" stroke="#C21C1C" stroke-opacity="0.33" stroke-width="3"/>
</svg>
